<?xml version="1.0" encoding="UTF-8"?>
<svg id="_Слой_1" data-name="Слой_1" xmlns="http://www.w3.org/2000/svg" version="1.1" viewBox="0 0 5868 2538">
  <!-- Generator: Adobe Illustrator 29.3.1, SVG Export Plug-In . SVG Version: 2.1.0 Build 151)  -->
  <path d="M883.42,1534.93c-17.36,0-31.42-14.07-31.42-31.42v-469.02c0-17.36,14.07-31.42,31.42-31.42s31.42,14.07,31.42,31.42v469.02c0,17.36-14.07,31.42-31.42,31.42Z"/>
  <path d="M1020.13,1720.34c-17.35,0-31.42-14.07-31.42-31.42v-839.83c0-17.35,14.07-31.42,31.42-31.42s31.42,14.07,31.42,31.42v839.83c0,17.36-14.07,31.42-31.42,31.42Z"/>
  <path d="M1156.83,1448.51c-17.36,0-31.42-14.07-31.42-31.42v-296.18c0-17.36,14.07-31.42,31.42-31.42s31.42,14.07,31.42,31.42v296.18c0,17.36-14.07,31.42-31.42,31.42Z"/>
  <path d="M1293.54,1632.35c-17.36,0-31.42-14.07-31.42-31.42v-663.85c0-17.36,14.07-31.42,31.42-31.42s31.42,14.07,31.42,31.42v663.85c0,17.36-14.07,31.42-31.42,31.42Z"/>
  <path d="M1430.25,2001.59c-17.36,0-31.42-14.07-31.42-31.42V567.83c0-17.36,14.07-31.42,31.42-31.42s31.42,14.07,31.42,31.42v1402.33c0,17.36-14.07,31.42-31.42,31.42Z"/>
  <path d="M1566.95,1780.05c-17.36,0-31.42-14.07-31.42-31.42v-959.24c0-17.36,14.07-31.42,31.42-31.42s31.42,14.07,31.42,31.42v959.24c0,17.36-14.07,31.42-31.42,31.42Z"/>
  <path d="M1703.65,1509.79c-17.36,0-31.42-14.07-31.42-31.42v-418.74c0-17.36,14.07-31.42,31.42-31.42s31.42,14.07,31.42,31.42v418.74c0,17.36-14.07,31.42-31.42,31.42Z"/>
  <path d="M1840.36,1432.8c-17.36,0-31.42-14.07-31.42-31.42v-264.75c0-17.36,14.07-31.42,31.42-31.42s31.42,14.07,31.42,31.42v264.75c0,17.36-14.07,31.42-31.42,31.42Z"/>
  <path d="M1977.06,1779.26c-17.36,0-31.42-14.07-31.42-31.42v-957.67c0-17.36,14.07-31.42,31.42-31.42s31.42,14.07,31.42,31.42v957.67c0,17.36-14.07,31.42-31.42,31.42Z"/>
  <path d="M2113.77,2001.59c-17.36,0-31.42-14.07-31.42-31.42V567.83c0-17.36,14.07-31.42,31.42-31.42s31.42,14.07,31.42,31.42v1402.33c0,17.36-14.07,31.42-31.42,31.42Z"/>
  <path d="M2250.47,1802.04c-17.36,0-31.42-14.07-31.42-31.42v-1003.24c0-17.36,14.07-31.42,31.42-31.42s31.42,14.07,31.42,31.42v1003.24c0,17.36-14.07,31.42-31.42,31.42Z"/>
  <path d="M2387.18,1602.5c-17.36,0-31.42-14.07-31.42-31.42v-604.14c0-17.36,14.07-31.42,31.42-31.42s31.42,14.07,31.42,31.42v604.14c0,17.36-14.07,31.42-31.42,31.42Z"/>
  <path d="M2523.88,1478.37c-17.36,0-31.42-14.07-31.42-31.42v-355.89c0-17.36,14.07-31.42,31.42-31.42s31.42,14.07,31.42,31.42v355.89c0,17.36-14.07,31.42-31.42,31.42Z"/>
  <path d="M2660.59,1740.77c-17.35,0-31.42-14.07-31.42-31.42v-880.68c0-17.35,14.07-31.42,31.42-31.42s31.42,14.07,31.42,31.42v880.68c0,17.36-14.07,31.42-31.42,31.42Z"/>
  <path d="M2797.3,1874.32c-17.36,0-31.42-14.07-31.42-31.42V695.1c0-17.36,14.07-31.42,31.42-31.42s31.42,14.07,31.42,31.42v1147.79c0,17.36-14.07,31.42-31.42,31.42Z"/>
  <path d="M2934,1696.77c-17.36,0-31.42-14.07-31.42-31.42v-792.69c0-17.36,14.07-31.42,31.42-31.42s31.42,14.07,31.42,31.42v792.69c0,17.36-14.07,31.42-31.42,31.42Z"/>
  <path d="M3070.71,1968.59c-17.36,0-31.42-14.07-31.42-31.42V600.83c0-17.36,14.07-31.42,31.42-31.42s31.42,14.07,31.42,31.42v1336.34c0,17.36-14.07,31.42-31.42,31.42Z"/>
  <path d="M3207.41,1602.5c-17.36,0-31.42-14.07-31.42-31.42v-604.14c0-17.36,14.07-31.42,31.42-31.42s31.42,14.07,31.42,31.42v604.14c0,17.36-14.07,31.42-31.42,31.42Z"/>
  <path d="M3344.12,1468.94c-17.36,0-31.42-14.07-31.42-31.42v-337.03c0-17.36,14.07-31.42,31.42-31.42s31.42,14.07,31.42,31.42v337.03c0,17.36-14.07,31.42-31.42,31.42Z"/>
  <path d="M3480.82,1629.21c-17.36,0-31.42-14.07-31.42-31.42v-657.56c0-17.36,14.07-31.42,31.42-31.42s31.42,14.07,31.42,31.42v657.56c0,17.36-14.07,31.42-31.42,31.42Z"/>
  <path d="M3617.53,1874.32c-17.36,0-31.42-14.07-31.42-31.42V695.1c0-17.36,14.07-31.42,31.42-31.42s31.42,14.07,31.42,31.42v1147.79c0,17.36-14.07,31.42-31.42,31.42Z"/>
  <path d="M3754.23,1696.77c-17.36,0-31.42-14.07-31.42-31.42v-792.69c0-17.36,14.07-31.42,31.42-31.42s31.42,14.07,31.42,31.42v792.69c0,17.36-14.07,31.42-31.42,31.42Z"/>
  <path d="M3890.93,1457.94c-17.36,0-31.42-14.07-31.42-31.42v-315.03c0-17.36,14.07-31.42,31.42-31.42s31.42,14.07,31.42,31.42v315.03c0,17.36-14.07,31.42-31.42,31.42Z"/>
  <path d="M4027.64,1602.5c-17.36,0-31.42-14.07-31.42-31.42v-604.14c0-17.36,14.07-31.42,31.42-31.42s31.42,14.07,31.42,31.42v604.14c0,17.36-14.07,31.42-31.42,31.42Z"/>
  <path d="M4164.34,1989.02c-17.36,0-31.42-14.07-31.42-31.42V580.4c0-17.36,14.07-31.42,31.42-31.42s31.42,14.07,31.42,31.42v1377.19c0,17.36-14.07,31.42-31.42,31.42Z"/>
  <path d="M4301.05,1820.9c-17.36,0-31.42-14.07-31.42-31.42V748.53c0-17.36,14.07-31.42,31.42-31.42s31.42,14.07,31.42,31.42v1040.95c0,17.36-14.07,31.42-31.42,31.42Z"/>
  <path d="M4437.76,1569.5c-17.36,0-31.42-14.07-31.42-31.42v-538.15c0-17.36,14.07-31.42,31.42-31.42s31.42,14.07,31.42,31.42v538.15c0,17.36-14.07,31.42-31.42,31.42Z"/>
  <path d="M4574.46,1487.8c-17.36,0-31.42-14.07-31.42-31.42v-374.74c0-17.36,14.07-31.42,31.42-31.42s31.42,14.07,31.42,31.42v374.74c0,17.36-14.07,31.42-31.42,31.42Z"/>
  <path d="M4711.17,1629.21c-17.36,0-31.42-14.07-31.42-31.42v-657.56c0-17.36,14.07-31.42,31.42-31.42s31.42,14.07,31.42,31.42v657.56c0,17.36-14.07,31.42-31.42,31.42Z"/>
  <path d="M4847.87,1874.32c-17.36,0-31.42-14.07-31.42-31.42V695.1c0-17.36,14.07-31.42,31.42-31.42s31.42,14.07,31.42,31.42v1147.79c0,17.36-14.07,31.42-31.42,31.42Z"/>
  <path d="M4984.58,1739.19c-17.36,0-31.42-14.07-31.42-31.42v-877.54c0-17.35,14.07-31.42,31.42-31.42s31.42,14.07,31.42,31.42v877.54c0,17.36-14.07,31.42-31.42,31.42Z"/>
</svg>