<?xml version="1.0" encoding="UTF-8"?>
<svg id="Livello_1" data-name="Livello 1" xmlns="http://www.w3.org/2000/svg" viewBox="0 0 8000 7000">
  <defs>
    <style>
      .cls-1 {
        fill: #1d1d1b;
      }
    </style>
  </defs>
  <path class="cls-1" d="M4000,792.92c-1495.08,0-2707.08,1212-2707.08,2707.08s1212,2707.08,2707.08,2707.08,2707.08-1212,2707.08-2707.08S5495.08,792.92,4000,792.92ZM4000,5820.36c-1281.5,0-2320.36-1038.86-2320.36-2320.36S2718.5,1179.64,4000,1179.64s2320.36,1038.86,2320.36,2320.36-1038.86,2320.36-2320.36,2320.36Z"/>
  <g>
    <path class="cls-1" d="M3414.45,2372.05h107.6c121.49,0,220.13,98.64,220.13,220.13v1815.64c0,121.49-98.64,220.13-220.13,220.13h-107.6c-121.49,0-220.13-98.64-220.13-220.13v-1815.64c0-121.49,98.64-220.13,220.13-220.13Z"/>
    <path class="cls-1" d="M4477.95,2372.05h107.6c121.49,0,220.13,98.64,220.13,220.13v1815.64c0,121.49-98.64,220.13-220.13,220.13h-107.6c-121.49,0-220.13-98.64-220.13-220.13v-1815.64c0-121.49,98.64-220.13,220.13-220.13Z"/>
  </g>
</svg>